; NON-PLATED HOLES START AT T1
; THROUGH (PLATED) HOLES START AT T100
M48
INCH
T1C0.393700
T2C0.472440
T100C0.015748
T101C0.030000
T102C0.098425
T103C0.094488
T104C0.035000
T105C0.038000
T106C0.031497
T107C0.027559
T108C0.040000
T109C0.035433
T110C0.047244
T111C0.031496
%
T1
X003241Y017823
T2
X011741Y003323
T100
X024741Y013323
X013241Y008573
X005241Y003828
X002741Y008073
X020736Y011576
X018241Y019073
X022741Y015073
X013741Y009073
X005482Y020575
X019991Y008327
X020991Y020823
X023741Y012823
X014241Y012573
X012241Y014823
X011991Y016073
X011241Y021073
X020991Y014323
X016241Y013323
X016741Y011323
X015246Y020822
X023241Y012323
X015748Y018828
X007741Y015323
X016741Y010323
X023241Y015573
X011491Y014573
X023241Y017323
X017741Y020573
X013741Y018073
X012241Y013073
X006991Y006073
X013241Y017573
X011491Y015323
X017491Y017573
X013993Y022569
X001745Y007071
X012491Y006573
X012746Y015323
X002741Y014073
T101
X015491Y022073
X023991Y010573
X016491Y003073
X016491Y004073
X005491Y006073
X021991Y010573
X021991Y011573
X005491Y005073
X016491Y022073
X023991Y011573
T102
X007491Y001573
X014491Y001573
T103
X016741Y000823
X000991Y022073
X025241Y022073
X005741Y000823
T104
X025491Y009823
X017991Y006323
X009241Y016823
X020991Y001323
X017991Y004323
X023491Y018073
X017991Y007323
X017991Y005323
X020991Y007323
X019741Y019073
X023741Y009573
X016741Y020073
X009491Y009323
X025491Y013823
X016741Y015073
X019741Y014073
X017991Y008323
X016741Y016073
X020991Y006323
X008241Y014073
X008241Y018073
X020991Y003323
X019741Y009573
X019741Y015073
X023491Y020073
X016741Y018073
X017991Y002323
X020991Y008323
X019741Y017073
X021491Y018073
X010241Y011323
X021491Y020073
X010241Y015323
X017991Y003323
X009491Y005323
X012491Y007573
X019741Y018073
X020991Y002323
X009241Y012823
X020991Y004323
X017991Y001323
X016741Y014073
X019741Y016073
X016741Y017073
X020991Y005323
X012491Y011573
X016741Y019073
X019741Y020073
T105
X019241Y012573
X024491Y003323
X025491Y006323
X024491Y005323
X025491Y008323
X022491Y007323
X002491Y022073
X024491Y002323
X001241Y010823
X022741Y022073
X024741Y019073
X003491Y022073
X025491Y002323
X002241Y010823
X023491Y006323
X023491Y001323
X019241Y010573
X023491Y004323
X022491Y008323
X001241Y009823
X025491Y007323
X003241Y012823
X024491Y006323
X001241Y011823
X005741Y012073
X019741Y022073
X020741Y022073
X006491Y022073
X025491Y005323
X001241Y012823
X007491Y022073
X023491Y005323
X003241Y011823
X024491Y001323
X024491Y004323
X002241Y009823
X004741Y013073
X017241Y012573
X003241Y009823
X003241Y008823
X023491Y002323
X023491Y007323
X002241Y008823
X024741Y020073
X005491Y022073
X018241Y010573
X018741Y022073
X024741Y017073
X025491Y001323
X002241Y011823
X018241Y012573
X003241Y010823
X024491Y008323
X020241Y012573
X025491Y004323
X023491Y008323
X023491Y003323
X001241Y008823
X024741Y018073
X002241Y012823
X005741Y013073
X004741Y012073
X025491Y003323
X021741Y022073
X024491Y007323
X004491Y022073
X023741Y022073
T106
X005241Y008089
X005241Y009073
T107
X003991Y002073
X003991Y003073
X000991Y005073
X003991Y006073
X003991Y005073
X000991Y001073
X003991Y007073
X000991Y004073
X000991Y007073
X003991Y001073
X000991Y002073
X000991Y003073
X003991Y004073
X000991Y006073
T108
X011241Y022073
X010241Y022073
X012241Y022073
T109
X014991Y012073
X014991Y010073
X014991Y004073
X014991Y008073
X014991Y013073
X006991Y010073
X009574Y001575
X006991Y012073
X014991Y009073
X006991Y016073
X006991Y008073
X012409Y001575
X014991Y005073
X006991Y018073
X014991Y006073
X014991Y018073
X006991Y013073
X014991Y016073
X014991Y014073
X014991Y015073
X006991Y011073
X014991Y007073
X006991Y017073
X006991Y007073
X006991Y014073
X014991Y017073
X014991Y003073
X014991Y011073
X006991Y015073
X006991Y009073
T110
X000841Y019273
X005641Y019273
X005641Y016473
X000841Y016473
X003241Y015073
X003241Y020673
T111
X009692Y002677
X012291Y002677
T00
M30
