G04 MADE WITH FRITZING*
G04 WWW.FRITZING.ORG*
G04 DOUBLE SIDED*
G04 HOLES PLATED*
G04 CONTOUR ON CENTER OF CONTOUR VECTOR*
%ASAXBY*%
%FSLAX23Y23*%
%MOIN*%
%OFA0B0*%
%SFA1.0B1.0*%
%ADD10C,0.138425*%
%ADD11C,0.095000*%
%ADD12C,0.051496*%
%ADD13R,0.087000X0.024000*%
%ADD14C,0.029783*%
%ADD15R,0.001000X0.001000*%
%LNPASTEMASK1*%
G90*
G70*
G54D10*
X1449Y157D03*
G54D11*
X957Y158D03*
G54D12*
X969Y268D03*
G54D10*
X749Y157D03*
G54D12*
X1229Y268D03*
G54D11*
X1241Y158D03*
G54D13*
X2193Y1507D03*
X2193Y1457D03*
X2193Y1407D03*
X2193Y1357D03*
X2399Y1357D03*
X2399Y1407D03*
X2399Y1457D03*
X2399Y1507D03*
G54D14*
X925Y190D02*
X990Y190D01*
X990Y125D01*
X925Y125D01*
X925Y190D01*
D02*
X1208Y190D02*
X1274Y190D01*
X1274Y125D01*
X1208Y125D01*
X1208Y190D01*
D02*
G54D15*
X928Y288D02*
X962Y288D01*
X975Y288D02*
X989Y288D01*
X1208Y288D02*
X1222Y288D01*
X1235Y288D02*
X1269Y288D01*
X928Y287D02*
X959Y287D01*
X978Y287D02*
X989Y287D01*
X1208Y287D02*
X1219Y287D01*
X1238Y287D02*
X1269Y287D01*
X928Y286D02*
X958Y286D01*
X980Y286D02*
X989Y286D01*
X1208Y286D02*
X1217Y286D01*
X1240Y286D02*
X1269Y286D01*
X928Y285D02*
X956Y285D01*
X981Y285D02*
X989Y285D01*
X1208Y285D02*
X1216Y285D01*
X1241Y285D02*
X1269Y285D01*
X928Y284D02*
X955Y284D01*
X982Y284D02*
X989Y284D01*
X1208Y284D02*
X1215Y284D01*
X1242Y284D02*
X1269Y284D01*
X928Y283D02*
X954Y283D01*
X984Y283D02*
X989Y283D01*
X1208Y283D02*
X1213Y283D01*
X1243Y283D02*
X1269Y283D01*
X928Y282D02*
X953Y282D01*
X985Y282D02*
X989Y282D01*
X1208Y282D02*
X1213Y282D01*
X1244Y282D02*
X1269Y282D01*
X928Y281D02*
X952Y281D01*
X985Y281D02*
X989Y281D01*
X1208Y281D02*
X1212Y281D01*
X1245Y281D02*
X1269Y281D01*
X928Y280D02*
X951Y280D01*
X986Y280D02*
X989Y280D01*
X1208Y280D02*
X1211Y280D01*
X1246Y280D02*
X1269Y280D01*
X928Y279D02*
X950Y279D01*
X987Y279D02*
X989Y279D01*
X1208Y279D02*
X1210Y279D01*
X1247Y279D02*
X1269Y279D01*
X928Y278D02*
X950Y278D01*
X987Y278D02*
X989Y278D01*
X1208Y278D02*
X1210Y278D01*
X1247Y278D02*
X1269Y278D01*
X928Y277D02*
X949Y277D01*
X988Y277D02*
X989Y277D01*
X1208Y277D02*
X1209Y277D01*
X1248Y277D02*
X1269Y277D01*
X928Y276D02*
X949Y276D01*
X988Y276D02*
X989Y276D01*
X1208Y276D02*
X1209Y276D01*
X1248Y276D02*
X1269Y276D01*
X928Y275D02*
X949Y275D01*
X989Y275D02*
X989Y275D01*
X1208Y275D02*
X1208Y275D01*
X1248Y275D02*
X1269Y275D01*
X928Y274D02*
X948Y274D01*
X989Y274D02*
X989Y274D01*
X1208Y274D02*
X1208Y274D01*
X1249Y274D02*
X1269Y274D01*
X928Y273D02*
X948Y273D01*
X989Y273D02*
X989Y273D01*
X1208Y273D02*
X1208Y273D01*
X1249Y273D02*
X1269Y273D01*
X928Y272D02*
X948Y272D01*
X1249Y272D02*
X1269Y272D01*
X928Y271D02*
X948Y271D01*
X1250Y271D02*
X1269Y271D01*
X928Y270D02*
X948Y270D01*
X1250Y270D02*
X1269Y270D01*
X928Y269D02*
X947Y269D01*
X1250Y269D02*
X1269Y269D01*
X928Y268D02*
X947Y268D01*
X1250Y268D02*
X1269Y268D01*
X928Y267D02*
X947Y267D01*
X1250Y267D02*
X1269Y267D01*
X928Y266D02*
X948Y266D01*
X1250Y266D02*
X1269Y266D01*
X928Y265D02*
X948Y265D01*
X1249Y265D02*
X1269Y265D01*
X928Y264D02*
X948Y264D01*
X1249Y264D02*
X1269Y264D01*
X928Y263D02*
X948Y263D01*
X989Y263D02*
X989Y263D01*
X1208Y263D02*
X1208Y263D01*
X1249Y263D02*
X1269Y263D01*
X928Y262D02*
X948Y262D01*
X989Y262D02*
X989Y262D01*
X1208Y262D02*
X1208Y262D01*
X1249Y262D02*
X1269Y262D01*
X928Y261D02*
X949Y261D01*
X989Y261D02*
X989Y261D01*
X1208Y261D02*
X1209Y261D01*
X1248Y261D02*
X1269Y261D01*
X928Y260D02*
X949Y260D01*
X988Y260D02*
X989Y260D01*
X1208Y260D02*
X1209Y260D01*
X1248Y260D02*
X1269Y260D01*
X928Y259D02*
X950Y259D01*
X988Y259D02*
X989Y259D01*
X1208Y259D02*
X1209Y259D01*
X1247Y259D02*
X1269Y259D01*
X928Y258D02*
X950Y258D01*
X987Y258D02*
X989Y258D01*
X1208Y258D02*
X1210Y258D01*
X1247Y258D02*
X1269Y258D01*
X928Y257D02*
X951Y257D01*
X987Y257D02*
X989Y257D01*
X1208Y257D02*
X1211Y257D01*
X1246Y257D02*
X1269Y257D01*
X928Y256D02*
X951Y256D01*
X986Y256D02*
X989Y256D01*
X1208Y256D02*
X1211Y256D01*
X1246Y256D02*
X1269Y256D01*
X928Y255D02*
X952Y255D01*
X985Y255D02*
X989Y255D01*
X1208Y255D02*
X1212Y255D01*
X1245Y255D02*
X1269Y255D01*
X928Y254D02*
X953Y254D01*
X984Y254D02*
X989Y254D01*
X1208Y254D02*
X1213Y254D01*
X1244Y254D02*
X1269Y254D01*
X928Y253D02*
X954Y253D01*
X983Y253D02*
X989Y253D01*
X1208Y253D02*
X1214Y253D01*
X1243Y253D02*
X1269Y253D01*
X928Y252D02*
X955Y252D01*
X982Y252D02*
X989Y252D01*
X1208Y252D02*
X1215Y252D01*
X1242Y252D02*
X1269Y252D01*
X928Y251D02*
X957Y251D01*
X981Y251D02*
X989Y251D01*
X1208Y251D02*
X1216Y251D01*
X1240Y251D02*
X1269Y251D01*
X928Y250D02*
X958Y250D01*
X979Y250D02*
X989Y250D01*
X1208Y250D02*
X1218Y250D01*
X1239Y250D02*
X1269Y250D01*
X928Y249D02*
X960Y249D01*
X977Y249D02*
X989Y249D01*
X1208Y249D02*
X1220Y249D01*
X1237Y249D02*
X1269Y249D01*
X928Y248D02*
X964Y248D01*
X974Y248D02*
X989Y248D01*
X1208Y248D02*
X1224Y248D01*
X1233Y248D02*
X1269Y248D01*
D02*
G04 End of PasteMask1*
M02*