G04 MADE WITH FRITZING*
G04 WWW.FRITZING.ORG*
G04 DOUBLE SIDED*
G04 HOLES PLATED*
G04 CONTOUR ON CENTER OF CONTOUR VECTOR*
%ASAXBY*%
%FSLAX23Y23*%
%MOIN*%
%OFA0B0*%
%SFA1.0B1.0*%
%ADD10C,0.049370*%
%ADD11C,0.088000*%
%ADD12C,0.096000*%
%ADD13C,0.085000*%
%ADD14C,0.080000*%
%ADD15C,0.072992*%
%ADD16C,0.084000*%
%ADD17C,0.148425*%
%ADD18C,0.105000*%
%ADD19C,0.061496*%
%ADD20C,0.072000*%
%ADD21C,0.077559*%
%ADD22C,0.143858*%
%ADD23C,0.403700*%
%ADD24C,0.482440*%
%ADD25R,0.097000X0.034000*%
%ADD26R,0.072992X0.072992*%
%ADD27R,0.085000X0.085000*%
%ADD28R,0.077559X0.077559*%
%ADD29C,0.039783*%
%ADD30R,0.001000X0.001000*%
%LNMASK1*%
G90*
G70*
G54D10*
X175Y707D03*
X274Y1407D03*
G54D11*
X249Y2207D03*
X349Y2207D03*
X449Y2207D03*
X549Y2207D03*
X649Y2207D03*
X749Y2207D03*
G54D10*
X1249Y657D03*
X1275Y1532D03*
X1999Y833D03*
X2074Y1158D03*
X548Y2058D03*
X774Y1532D03*
G54D12*
X324Y2067D03*
X564Y1927D03*
X324Y1507D03*
X84Y1647D03*
X564Y1647D03*
X84Y1927D03*
G54D10*
X2099Y2082D03*
X1399Y2257D03*
X1149Y1532D03*
X1199Y1607D03*
X1774Y2057D03*
X1525Y2082D03*
X1575Y1883D03*
X1124Y2107D03*
X1824Y1907D03*
X1749Y1757D03*
X2274Y1507D03*
X2374Y1282D03*
X2324Y1557D03*
X2324Y1232D03*
X2099Y1432D03*
X2474Y1332D03*
X2324Y1732D03*
G54D13*
X2374Y957D03*
X1974Y957D03*
X2549Y1382D03*
X2549Y982D03*
G54D14*
X2199Y1157D03*
X2199Y1057D03*
X2399Y1157D03*
X2399Y1057D03*
G54D11*
X2249Y732D03*
X2249Y832D03*
G54D13*
X2149Y1807D03*
X2349Y1807D03*
X2149Y2007D03*
X2349Y2007D03*
X1249Y757D03*
X1249Y1157D03*
X949Y532D03*
X949Y932D03*
G54D15*
X524Y907D03*
X524Y809D03*
G54D16*
X1024Y2207D03*
X1124Y2207D03*
X1224Y2207D03*
X1024Y2207D03*
X1124Y2207D03*
X1224Y2207D03*
G54D11*
X124Y1282D03*
X224Y1282D03*
X324Y1282D03*
G54D17*
X1449Y157D03*
G54D18*
X957Y158D03*
G54D19*
X969Y268D03*
G54D20*
X1499Y1807D03*
X1499Y1707D03*
X1499Y1607D03*
X1499Y1507D03*
X1499Y1407D03*
X1499Y1307D03*
X1499Y1207D03*
X1499Y1107D03*
X1499Y1007D03*
G54D17*
X749Y157D03*
G54D20*
X1499Y907D03*
X1499Y807D03*
X1499Y707D03*
X1499Y607D03*
X1499Y507D03*
X1499Y407D03*
X1499Y307D03*
X699Y707D03*
X699Y807D03*
X699Y907D03*
X699Y1007D03*
X699Y1107D03*
X699Y1207D03*
X699Y1307D03*
X699Y1407D03*
X699Y1507D03*
X699Y1607D03*
X699Y1707D03*
X699Y1807D03*
G54D19*
X1229Y268D03*
G54D18*
X1241Y158D03*
G54D10*
X1149Y1457D03*
G54D11*
X1924Y1057D03*
X1824Y1057D03*
G54D10*
X1424Y1257D03*
X1224Y1307D03*
X524Y383D03*
X274Y807D03*
G54D11*
X1874Y2207D03*
X1974Y2207D03*
X2074Y2207D03*
X2174Y2207D03*
X2274Y2207D03*
X2374Y2207D03*
X2549Y132D03*
X2549Y232D03*
X2549Y332D03*
X2549Y432D03*
X2549Y532D03*
X2549Y632D03*
X2549Y732D03*
X2549Y832D03*
X2449Y132D03*
X2449Y232D03*
X2449Y332D03*
X2449Y432D03*
X2449Y532D03*
X2449Y632D03*
X2449Y732D03*
X2449Y832D03*
X2349Y132D03*
X2349Y232D03*
X2349Y332D03*
X2349Y432D03*
X2349Y532D03*
X2349Y632D03*
X2349Y732D03*
X2349Y832D03*
X1724Y1257D03*
X1824Y1257D03*
X1924Y1257D03*
X2024Y1257D03*
X2474Y2007D03*
X2474Y1907D03*
X2474Y1807D03*
X2474Y1707D03*
G54D13*
X1674Y2007D03*
X1974Y2007D03*
X1674Y1907D03*
X1974Y1907D03*
X1674Y1807D03*
X1974Y1807D03*
X1674Y1707D03*
X1974Y1707D03*
X1674Y1607D03*
X1974Y1607D03*
X1674Y1507D03*
X1974Y1507D03*
X1674Y1407D03*
X1974Y1407D03*
X2099Y132D03*
X1799Y132D03*
X2099Y232D03*
X1799Y232D03*
X2099Y332D03*
X1799Y332D03*
X2099Y432D03*
X1799Y432D03*
X2099Y532D03*
X1799Y532D03*
X2099Y632D03*
X1799Y632D03*
X2099Y732D03*
X1799Y732D03*
X2099Y832D03*
X1799Y832D03*
G54D14*
X549Y607D03*
X549Y507D03*
X1649Y407D03*
X1649Y307D03*
G54D10*
X1224Y1482D03*
X1374Y1807D03*
X1374Y907D03*
X1324Y857D03*
X1324Y1757D03*
X1624Y1332D03*
X1674Y1032D03*
X1674Y1132D03*
G54D13*
X824Y1807D03*
X824Y1407D03*
X924Y1282D03*
X924Y1682D03*
X1024Y1132D03*
X1024Y1532D03*
G54D11*
X574Y1307D03*
X474Y1307D03*
X574Y1207D03*
X474Y1207D03*
G54D21*
X99Y707D03*
X399Y707D03*
X99Y607D03*
X399Y607D03*
X99Y507D03*
X399Y507D03*
X99Y407D03*
X399Y407D03*
X99Y307D03*
X399Y307D03*
X99Y207D03*
X399Y207D03*
X99Y107D03*
X399Y107D03*
G54D11*
X224Y1182D03*
X224Y1082D03*
X224Y982D03*
X224Y882D03*
X124Y1182D03*
X124Y1082D03*
X124Y982D03*
X124Y882D03*
X324Y1182D03*
X324Y1082D03*
X324Y982D03*
X324Y882D03*
G54D22*
X1674Y82D03*
X574Y82D03*
X2524Y2207D03*
X99Y2207D03*
G54D23*
X324Y1782D03*
G54D24*
X1174Y332D03*
G54D10*
X699Y607D03*
G54D25*
X2193Y1507D03*
X2193Y1457D03*
X2193Y1407D03*
X2193Y1357D03*
X2399Y1357D03*
X2399Y1407D03*
X2399Y1457D03*
X2399Y1507D03*
G54D26*
X524Y907D03*
G54D27*
X1674Y2007D03*
X2099Y132D03*
G54D28*
X99Y707D03*
G54D29*
G36*
X925Y190D02*
X990Y190D01*
X990Y125D01*
X925Y125D01*
X925Y190D01*
G37*
D02*
G36*
X1208Y190D02*
X1274Y190D01*
X1274Y125D01*
X1208Y125D01*
X1208Y190D01*
G37*
D02*
G54D30*
X1542Y2247D02*
X1555Y2247D01*
X1642Y2247D02*
X1655Y2247D01*
X1538Y2246D02*
X1559Y2246D01*
X1638Y2246D02*
X1659Y2246D01*
X1535Y2245D02*
X1562Y2245D01*
X1635Y2245D02*
X1662Y2245D01*
X1532Y2244D02*
X1565Y2244D01*
X1632Y2244D02*
X1665Y2244D01*
X1530Y2243D02*
X1567Y2243D01*
X1630Y2243D02*
X1667Y2243D01*
X1529Y2242D02*
X1568Y2242D01*
X1629Y2242D02*
X1668Y2242D01*
X1527Y2241D02*
X1570Y2241D01*
X1627Y2241D02*
X1670Y2241D01*
X1526Y2240D02*
X1571Y2240D01*
X1626Y2240D02*
X1671Y2240D01*
X1524Y2239D02*
X1573Y2239D01*
X1624Y2239D02*
X1673Y2239D01*
X1523Y2238D02*
X1574Y2238D01*
X1623Y2238D02*
X1674Y2238D01*
X1522Y2237D02*
X1575Y2237D01*
X1622Y2237D02*
X1675Y2237D01*
X1521Y2236D02*
X1576Y2236D01*
X1621Y2236D02*
X1676Y2236D01*
X1520Y2235D02*
X1577Y2235D01*
X1620Y2235D02*
X1677Y2235D01*
X1519Y2234D02*
X1578Y2234D01*
X1619Y2234D02*
X1678Y2234D01*
X1518Y2233D02*
X1579Y2233D01*
X1618Y2233D02*
X1679Y2233D01*
X1517Y2232D02*
X1580Y2232D01*
X1617Y2232D02*
X1680Y2232D01*
X1517Y2231D02*
X1580Y2231D01*
X1617Y2231D02*
X1680Y2231D01*
X1516Y2230D02*
X1581Y2230D01*
X1616Y2230D02*
X1681Y2230D01*
X1515Y2229D02*
X1582Y2229D01*
X1615Y2229D02*
X1682Y2229D01*
X1515Y2228D02*
X1582Y2228D01*
X1615Y2228D02*
X1682Y2228D01*
X1514Y2227D02*
X1583Y2227D01*
X1614Y2227D02*
X1683Y2227D01*
X1514Y2226D02*
X1584Y2226D01*
X1614Y2226D02*
X1683Y2226D01*
X1513Y2225D02*
X1584Y2225D01*
X1613Y2225D02*
X1684Y2225D01*
X1513Y2224D02*
X1584Y2224D01*
X1613Y2224D02*
X1684Y2224D01*
X1512Y2223D02*
X1585Y2223D01*
X1612Y2223D02*
X1685Y2223D01*
X1512Y2222D02*
X1585Y2222D01*
X1612Y2222D02*
X1685Y2222D01*
X1511Y2221D02*
X1586Y2221D01*
X1611Y2221D02*
X1686Y2221D01*
X1511Y2220D02*
X1586Y2220D01*
X1611Y2220D02*
X1686Y2220D01*
X1511Y2219D02*
X1586Y2219D01*
X1611Y2219D02*
X1686Y2219D01*
X1510Y2218D02*
X1587Y2218D01*
X1610Y2218D02*
X1687Y2218D01*
X1510Y2217D02*
X1587Y2217D01*
X1610Y2217D02*
X1687Y2217D01*
X1510Y2216D02*
X1587Y2216D01*
X1610Y2216D02*
X1687Y2216D01*
X1510Y2215D02*
X1587Y2215D01*
X1610Y2215D02*
X1687Y2215D01*
X1510Y2214D02*
X1587Y2214D01*
X1610Y2214D02*
X1687Y2214D01*
X1509Y2213D02*
X1588Y2213D01*
X1609Y2213D02*
X1688Y2213D01*
X1509Y2212D02*
X1588Y2212D01*
X1609Y2212D02*
X1688Y2212D01*
X1509Y2211D02*
X1588Y2211D01*
X1609Y2211D02*
X1688Y2211D01*
X1509Y2210D02*
X1588Y2210D01*
X1609Y2210D02*
X1688Y2210D01*
X1509Y2209D02*
X1588Y2209D01*
X1609Y2209D02*
X1688Y2209D01*
X1509Y2208D02*
X1588Y2208D01*
X1609Y2208D02*
X1688Y2208D01*
X1509Y2207D02*
X1588Y2207D01*
X1609Y2207D02*
X1688Y2207D01*
X1509Y2206D02*
X1588Y2206D01*
X1609Y2206D02*
X1688Y2206D01*
X1509Y2205D02*
X1588Y2205D01*
X1609Y2205D02*
X1688Y2205D01*
X1509Y2204D02*
X1588Y2204D01*
X1609Y2204D02*
X1688Y2204D01*
X1509Y2203D02*
X1588Y2203D01*
X1609Y2203D02*
X1688Y2203D01*
X1510Y2202D02*
X1587Y2202D01*
X1610Y2202D02*
X1687Y2202D01*
X1510Y2201D02*
X1587Y2201D01*
X1610Y2201D02*
X1687Y2201D01*
X1510Y2200D02*
X1587Y2200D01*
X1610Y2200D02*
X1687Y2200D01*
X1510Y2199D02*
X1587Y2199D01*
X1610Y2199D02*
X1687Y2199D01*
X1510Y2198D02*
X1587Y2198D01*
X1610Y2198D02*
X1687Y2198D01*
X1511Y2197D02*
X1586Y2197D01*
X1611Y2197D02*
X1686Y2197D01*
X1511Y2196D02*
X1586Y2196D01*
X1611Y2196D02*
X1686Y2196D01*
X1511Y2195D02*
X1586Y2195D01*
X1611Y2195D02*
X1686Y2195D01*
X1511Y2194D02*
X1586Y2194D01*
X1611Y2194D02*
X1686Y2194D01*
X1512Y2193D02*
X1585Y2193D01*
X1612Y2193D02*
X1685Y2193D01*
X1512Y2192D02*
X1585Y2192D01*
X1612Y2192D02*
X1685Y2192D01*
X1513Y2191D02*
X1584Y2191D01*
X1613Y2191D02*
X1684Y2191D01*
X1513Y2190D02*
X1584Y2190D01*
X1613Y2190D02*
X1684Y2190D01*
X1514Y2189D02*
X1583Y2189D01*
X1614Y2189D02*
X1683Y2189D01*
X1514Y2188D02*
X1583Y2188D01*
X1614Y2188D02*
X1683Y2188D01*
X1515Y2187D02*
X1582Y2187D01*
X1615Y2187D02*
X1682Y2187D01*
X1516Y2186D02*
X1582Y2186D01*
X1616Y2186D02*
X1681Y2186D01*
X1516Y2185D02*
X1581Y2185D01*
X1616Y2185D02*
X1681Y2185D01*
X1517Y2184D02*
X1580Y2184D01*
X1617Y2184D02*
X1680Y2184D01*
X1518Y2183D02*
X1579Y2183D01*
X1618Y2183D02*
X1679Y2183D01*
X1518Y2182D02*
X1579Y2182D01*
X1618Y2182D02*
X1679Y2182D01*
X1519Y2181D02*
X1578Y2181D01*
X1619Y2181D02*
X1678Y2181D01*
X1520Y2180D02*
X1577Y2180D01*
X1620Y2180D02*
X1677Y2180D01*
X1521Y2179D02*
X1576Y2179D01*
X1621Y2179D02*
X1676Y2179D01*
X1522Y2178D02*
X1575Y2178D01*
X1622Y2178D02*
X1675Y2178D01*
X1523Y2177D02*
X1574Y2177D01*
X1623Y2177D02*
X1674Y2177D01*
X1525Y2176D02*
X1572Y2176D01*
X1625Y2176D02*
X1672Y2176D01*
X1526Y2175D02*
X1571Y2175D01*
X1626Y2175D02*
X1671Y2175D01*
X1528Y2174D02*
X1569Y2174D01*
X1628Y2174D02*
X1669Y2174D01*
X1529Y2173D02*
X1568Y2173D01*
X1629Y2173D02*
X1668Y2173D01*
X1531Y2172D02*
X1566Y2172D01*
X1631Y2172D02*
X1666Y2172D01*
X1533Y2171D02*
X1564Y2171D01*
X1633Y2171D02*
X1664Y2171D01*
X1536Y2170D02*
X1561Y2170D01*
X1636Y2170D02*
X1661Y2170D01*
X1539Y2169D02*
X1558Y2169D01*
X1639Y2169D02*
X1658Y2169D01*
X1545Y2168D02*
X1552Y2168D01*
X1645Y2168D02*
X1652Y2168D01*
X964Y294D02*
X973Y294D01*
X1224Y294D02*
X1233Y294D01*
X923Y293D02*
X994Y293D01*
X1203Y293D02*
X1274Y293D01*
X923Y292D02*
X994Y292D01*
X1203Y292D02*
X1274Y292D01*
X923Y291D02*
X994Y291D01*
X1203Y291D02*
X1274Y291D01*
X923Y290D02*
X994Y290D01*
X1203Y290D02*
X1274Y290D01*
X923Y289D02*
X994Y289D01*
X1203Y289D02*
X1274Y289D01*
X923Y288D02*
X994Y288D01*
X1203Y288D02*
X1274Y288D01*
X923Y287D02*
X994Y287D01*
X1203Y287D02*
X1274Y287D01*
X923Y286D02*
X994Y286D01*
X1203Y286D02*
X1274Y286D01*
X923Y285D02*
X994Y285D01*
X1203Y285D02*
X1274Y285D01*
X923Y284D02*
X994Y284D01*
X1203Y284D02*
X1274Y284D01*
X923Y283D02*
X963Y283D01*
X975Y283D02*
X994Y283D01*
X1203Y283D02*
X1222Y283D01*
X1235Y283D02*
X1274Y283D01*
X923Y282D02*
X960Y282D01*
X977Y282D02*
X994Y282D01*
X1203Y282D02*
X1220Y282D01*
X1237Y282D02*
X1274Y282D01*
X923Y281D02*
X959Y281D01*
X978Y281D02*
X994Y281D01*
X1203Y281D02*
X1219Y281D01*
X1238Y281D02*
X1274Y281D01*
X923Y280D02*
X958Y280D01*
X980Y280D02*
X994Y280D01*
X1203Y280D02*
X1218Y280D01*
X1239Y280D02*
X1274Y280D01*
X923Y279D02*
X957Y279D01*
X981Y279D02*
X994Y279D01*
X1203Y279D02*
X1217Y279D01*
X1240Y279D02*
X1274Y279D01*
X923Y278D02*
X956Y278D01*
X981Y278D02*
X994Y278D01*
X1203Y278D02*
X1216Y278D01*
X1241Y278D02*
X1274Y278D01*
X923Y277D02*
X955Y277D01*
X982Y277D02*
X994Y277D01*
X1203Y277D02*
X1215Y277D01*
X1242Y277D02*
X1274Y277D01*
X923Y276D02*
X954Y276D01*
X983Y276D02*
X994Y276D01*
X1203Y276D02*
X1214Y276D01*
X1243Y276D02*
X1274Y276D01*
X923Y275D02*
X954Y275D01*
X983Y275D02*
X994Y275D01*
X1203Y275D02*
X1214Y275D01*
X1243Y275D02*
X1274Y275D01*
X923Y274D02*
X953Y274D01*
X984Y274D02*
X994Y274D01*
X1203Y274D02*
X1213Y274D01*
X1244Y274D02*
X1274Y274D01*
X923Y273D02*
X953Y273D01*
X984Y273D02*
X994Y273D01*
X1203Y273D02*
X1213Y273D01*
X1244Y273D02*
X1274Y273D01*
X923Y272D02*
X953Y272D01*
X984Y272D02*
X994Y272D01*
X1203Y272D02*
X1213Y272D01*
X1244Y272D02*
X1274Y272D01*
X923Y271D02*
X953Y271D01*
X985Y271D02*
X994Y271D01*
X1203Y271D02*
X1213Y271D01*
X1244Y271D02*
X1274Y271D01*
X923Y270D02*
X953Y270D01*
X985Y270D02*
X994Y270D01*
X1203Y270D02*
X1213Y270D01*
X1245Y270D02*
X1274Y270D01*
X923Y269D02*
X952Y269D01*
X985Y269D02*
X994Y269D01*
X1203Y269D02*
X1213Y269D01*
X1245Y269D02*
X1274Y269D01*
X923Y268D02*
X952Y268D01*
X985Y268D02*
X994Y268D01*
X1203Y268D02*
X1212Y268D01*
X1245Y268D02*
X1274Y268D01*
X923Y267D02*
X953Y267D01*
X985Y267D02*
X994Y267D01*
X1203Y267D02*
X1213Y267D01*
X1245Y267D02*
X1274Y267D01*
X923Y266D02*
X953Y266D01*
X985Y266D02*
X994Y266D01*
X1203Y266D02*
X1213Y266D01*
X1245Y266D02*
X1274Y266D01*
X923Y265D02*
X953Y265D01*
X984Y265D02*
X994Y265D01*
X1203Y265D02*
X1213Y265D01*
X1244Y265D02*
X1274Y265D01*
X923Y264D02*
X953Y264D01*
X984Y264D02*
X994Y264D01*
X1203Y264D02*
X1213Y264D01*
X1244Y264D02*
X1274Y264D01*
X923Y263D02*
X953Y263D01*
X984Y263D02*
X994Y263D01*
X1203Y263D02*
X1213Y263D01*
X1244Y263D02*
X1274Y263D01*
X923Y262D02*
X954Y262D01*
X984Y262D02*
X994Y262D01*
X1203Y262D02*
X1213Y262D01*
X1243Y262D02*
X1274Y262D01*
X923Y261D02*
X954Y261D01*
X983Y261D02*
X994Y261D01*
X1203Y261D02*
X1214Y261D01*
X1243Y261D02*
X1274Y261D01*
X923Y260D02*
X955Y260D01*
X983Y260D02*
X994Y260D01*
X1203Y260D02*
X1215Y260D01*
X1242Y260D02*
X1274Y260D01*
X923Y259D02*
X955Y259D01*
X982Y259D02*
X994Y259D01*
X1203Y259D02*
X1215Y259D01*
X1242Y259D02*
X1274Y259D01*
X923Y258D02*
X956Y258D01*
X981Y258D02*
X994Y258D01*
X1203Y258D02*
X1216Y258D01*
X1241Y258D02*
X1274Y258D01*
X923Y257D02*
X957Y257D01*
X980Y257D02*
X994Y257D01*
X1203Y257D02*
X1217Y257D01*
X1240Y257D02*
X1274Y257D01*
X923Y256D02*
X958Y256D01*
X979Y256D02*
X994Y256D01*
X1203Y256D02*
X1218Y256D01*
X1239Y256D02*
X1274Y256D01*
X923Y255D02*
X960Y255D01*
X978Y255D02*
X994Y255D01*
X1203Y255D02*
X1219Y255D01*
X1238Y255D02*
X1274Y255D01*
X923Y254D02*
X961Y254D01*
X976Y254D02*
X994Y254D01*
X1203Y254D02*
X1221Y254D01*
X1236Y254D02*
X1274Y254D01*
X923Y253D02*
X964Y253D01*
X973Y253D02*
X994Y253D01*
X1203Y253D02*
X1224Y253D01*
X1233Y253D02*
X1274Y253D01*
X923Y252D02*
X994Y252D01*
X1203Y252D02*
X1274Y252D01*
X923Y251D02*
X994Y251D01*
X1203Y251D02*
X1274Y251D01*
X923Y250D02*
X994Y250D01*
X1203Y250D02*
X1274Y250D01*
X923Y249D02*
X994Y249D01*
X1203Y249D02*
X1274Y249D01*
X923Y248D02*
X994Y248D01*
X1203Y248D02*
X1274Y248D01*
X923Y247D02*
X994Y247D01*
X1203Y247D02*
X1274Y247D01*
X923Y246D02*
X994Y246D01*
X1203Y246D02*
X1274Y246D01*
X923Y245D02*
X994Y245D01*
X1203Y245D02*
X1274Y245D01*
X923Y244D02*
X994Y244D01*
X1203Y244D02*
X1274Y244D01*
X923Y243D02*
X994Y243D01*
X1203Y243D02*
X1274Y243D01*
D02*
G04 End of Mask1*
M02*