; NON-PLATED HOLES START AT T1
; THROUGH (PLATED) HOLES START AT T100
M48
INCH
T1C0.472440
T2C0.393700
T100C0.031496
T101C0.027559
T102C0.035000
T103C0.094488
T104C0.015748
T105C0.098425
T106C0.031497
T107C0.038000
T108C0.047244
T109C0.040000
T110C0.030000
T111C0.035433
%
T1
X011981Y003073
T2
X003231Y017823
T100
X012281Y002677
X009682Y002677
T101
X003981Y003073
X000981Y007073
X000981Y006073
X003981Y001073
X000981Y004073
X000981Y001073
X003981Y005073
X003981Y004073
X000981Y005073
X000981Y002073
X000981Y003073
X003981Y007073
X003981Y002073
X003981Y006073
T102
X019731Y014073
X017981Y004323
X019731Y009573
X017981Y001323
X016731Y014073
X017981Y003323
X019731Y017073
X020981Y003323
X008231Y018073
X019731Y020073
X020981Y007323
X021481Y018073
X017981Y002323
X010231Y015323
X016731Y018073
X021481Y020073
X010231Y011323
X019731Y016073
X008231Y014073
X023731Y009573
X016731Y019073
X025481Y013823
X020981Y006323
X010981Y005823
X019731Y015073
X009231Y012823
X020981Y002323
X009481Y009323
X009481Y005323
X009231Y016823
X020981Y008323
X017981Y007323
X019731Y019073
X019731Y018073
X017981Y005323
X025481Y009823
X016731Y016073
X023481Y018073
X020981Y005323
X020981Y004323
X016731Y020073
X023481Y020073
X017981Y008323
X020981Y001323
X017981Y006323
X016731Y017073
X016731Y015073
X010981Y009823
T103
X000981Y022073
X025231Y022073
X016731Y000823
X005731Y000823
T104
X002731Y008073
X016231Y013323
X012736Y015323
X015235Y020822
X020981Y014323
X020726Y011576
X011231Y021073
X001735Y007071
X014231Y012573
X005472Y020575
X013982Y022569
X013731Y018073
X002731Y014073
X023231Y012323
X017481Y017573
X023231Y015573
X011481Y014573
X013731Y009073
X012231Y013073
X018231Y019073
X016731Y011323
X023231Y017323
X020981Y020823
X013231Y016823
X023731Y012823
X016731Y010323
X006981Y006073
X011981Y016073
X015738Y018828
X017731Y020573
X007731Y015323
X019981Y008327
X005231Y003828
X012231Y014823
X011481Y015323
X024731Y013323
X022731Y015073
T105
X007481Y001573
X014481Y001573
T106
X005231Y008089
X005231Y009073
T107
X025481Y002323
X025481Y006323
X020731Y022073
X024481Y003323
X003231Y008823
X024481Y002323
X005731Y022073
X024481Y007323
X001231Y012823
X025481Y003323
X017231Y012573
X024731Y019073
X025481Y001323
X024481Y006323
X023481Y001323
X001231Y011823
X001231Y009823
X019731Y022073
X002231Y010823
X019231Y010573
X012231Y007573
X006731Y022073
X025481Y007323
X024481Y005323
X023481Y005323
X018731Y022073
X019231Y012573
X001231Y008823
X023481Y006323
X021731Y022073
X003231Y010823
X022731Y022073
X003731Y022073
X023481Y008323
X002231Y012823
X002731Y022073
X003231Y011823
X001231Y010823
X004731Y022073
X023481Y007323
X024731Y020073
X025481Y004323
X022481Y007323
X018231Y012573
X003231Y012823
X022481Y008323
X003231Y009823
X004731Y012073
X024481Y008323
X023481Y003323
X024731Y018073
X007731Y022073
X023481Y004323
X023731Y022073
X002231Y011823
X020231Y012573
X012231Y008573
X024731Y017073
X005731Y012073
X012231Y010573
X005731Y013073
X025481Y008323
X012231Y009573
X024481Y001323
X024481Y004323
X025481Y005323
X002231Y009823
X023481Y002323
X004731Y013073
X002231Y008823
X018231Y010573
T108
X005531Y019323
X000731Y019323
X003131Y015123
X000731Y016523
X005531Y016523
X003131Y020723
T109
X011231Y022073
X010231Y022073
X012231Y022073
T110
X015481Y022073
X021981Y010573
X023981Y011573
X016481Y003073
X005481Y006073
X005481Y005073
X023981Y010573
X016481Y004073
X021981Y011573
X016481Y022073
T111
X014981Y010073
X014981Y009073
X006981Y016073
X006981Y007073
X006981Y012073
X014981Y012073
X006981Y009073
X006981Y010073
X014981Y007073
X014981Y015073
X014981Y006073
X014981Y005073
X014981Y008073
X014981Y004073
X014981Y011073
X014981Y017073
X006981Y014073
X006981Y015073
X006981Y008073
X009564Y001575
X014981Y003073
X006981Y011073
X006981Y017073
X012399Y001575
X006981Y018073
X006981Y013073
X014981Y014073
X014981Y018073
X014981Y013073
X014981Y016073
T00
M30
