G04 MADE WITH FRITZING*
G04 WWW.FRITZING.ORG*
G04 DOUBLE SIDED*
G04 HOLES PLATED*
G04 CONTOUR ON CENTER OF CONTOUR VECTOR*
%ASAXBY*%
%FSLAX23Y23*%
%MOIN*%
%OFA0B0*%
%SFA1.0B1.0*%
%ADD10C,0.039370*%
%ADD11C,0.078000*%
%ADD12C,0.086000*%
%ADD13C,0.075000*%
%ADD14C,0.070000*%
%ADD15C,0.062992*%
%ADD16C,0.074000*%
%ADD17C,0.138425*%
%ADD18C,0.095000*%
%ADD19C,0.051496*%
%ADD20C,0.062000*%
%ADD21C,0.067559*%
%ADD22C,0.133858*%
%ADD23R,0.087000X0.024000*%
%ADD24R,0.062992X0.062992*%
%ADD25R,0.075000X0.075000*%
%ADD26R,0.067559X0.067559*%
%ADD27C,0.016000*%
%ADD28C,0.032000*%
%ADD29C,0.024000*%
%ADD30C,0.011111*%
%ADD31C,0.029783*%
%ADD32R,0.001000X0.001000*%
%LNCOPPER1*%
G90*
G70*
G54D10*
X174Y707D03*
X273Y1407D03*
G54D11*
X273Y2207D03*
X373Y2207D03*
X473Y2207D03*
X573Y2207D03*
X673Y2207D03*
X773Y2207D03*
G54D10*
X1274Y1532D03*
X1998Y833D03*
X2073Y1158D03*
X547Y2058D03*
X773Y1532D03*
G54D12*
X313Y2072D03*
X553Y1932D03*
X313Y1512D03*
X73Y1652D03*
X553Y1652D03*
X73Y1932D03*
G54D10*
X2098Y2082D03*
X1398Y2257D03*
X1148Y1532D03*
X1198Y1607D03*
X1773Y2057D03*
X1524Y2082D03*
X1574Y1883D03*
X1123Y2107D03*
X1823Y1907D03*
X1748Y1757D03*
X2273Y1507D03*
X2373Y1282D03*
X2323Y1557D03*
X2323Y1232D03*
X2098Y1432D03*
X2473Y1332D03*
X2323Y1732D03*
G54D13*
X2373Y957D03*
X1973Y957D03*
X2548Y1382D03*
X2548Y982D03*
G54D14*
X2198Y1157D03*
X2198Y1057D03*
X2398Y1157D03*
X2398Y1057D03*
G54D11*
X2248Y732D03*
X2248Y832D03*
G54D13*
X2148Y1807D03*
X2348Y1807D03*
X2148Y2007D03*
X2348Y2007D03*
X1098Y582D03*
X1098Y982D03*
X948Y532D03*
X948Y932D03*
G54D15*
X523Y907D03*
X523Y809D03*
G54D16*
X1023Y2207D03*
X1123Y2207D03*
X1223Y2207D03*
X1023Y2207D03*
X1123Y2207D03*
X1223Y2207D03*
G54D11*
X123Y1282D03*
X223Y1282D03*
X323Y1282D03*
G54D17*
X1448Y157D03*
G54D18*
X956Y158D03*
G54D19*
X968Y268D03*
G54D20*
X1498Y1807D03*
X1498Y1707D03*
X1498Y1607D03*
X1498Y1507D03*
X1498Y1407D03*
X1498Y1307D03*
X1498Y1207D03*
X1498Y1107D03*
X1498Y1007D03*
G54D17*
X748Y157D03*
G54D20*
X1498Y907D03*
X1498Y807D03*
X1498Y707D03*
X1498Y607D03*
X1498Y507D03*
X1498Y407D03*
X1498Y307D03*
X698Y707D03*
X698Y807D03*
X698Y907D03*
X698Y1007D03*
X698Y1107D03*
X698Y1207D03*
X698Y1307D03*
X698Y1407D03*
X698Y1507D03*
X698Y1607D03*
X698Y1707D03*
X698Y1807D03*
G54D19*
X1228Y268D03*
G54D18*
X1240Y158D03*
G54D10*
X1148Y1457D03*
G54D11*
X1223Y957D03*
X1223Y1057D03*
X1223Y757D03*
X1223Y857D03*
X1923Y1057D03*
X1823Y1057D03*
G54D10*
X1423Y1257D03*
X1223Y1307D03*
X523Y383D03*
X273Y807D03*
G54D11*
X1873Y2207D03*
X1973Y2207D03*
X2073Y2207D03*
X2173Y2207D03*
X2273Y2207D03*
X2373Y2207D03*
X2548Y132D03*
X2548Y232D03*
X2548Y332D03*
X2548Y432D03*
X2548Y532D03*
X2548Y632D03*
X2548Y732D03*
X2548Y832D03*
X2448Y132D03*
X2448Y232D03*
X2448Y332D03*
X2448Y432D03*
X2448Y532D03*
X2448Y632D03*
X2448Y732D03*
X2448Y832D03*
X2348Y132D03*
X2348Y232D03*
X2348Y332D03*
X2348Y432D03*
X2348Y532D03*
X2348Y632D03*
X2348Y732D03*
X2348Y832D03*
X1723Y1257D03*
X1823Y1257D03*
X1923Y1257D03*
X2023Y1257D03*
X2473Y2007D03*
X2473Y1907D03*
X2473Y1807D03*
X2473Y1707D03*
G54D13*
X1673Y2007D03*
X1973Y2007D03*
X1673Y1907D03*
X1973Y1907D03*
X1673Y1807D03*
X1973Y1807D03*
X1673Y1707D03*
X1973Y1707D03*
X1673Y1607D03*
X1973Y1607D03*
X1673Y1507D03*
X1973Y1507D03*
X1673Y1407D03*
X1973Y1407D03*
X2098Y132D03*
X1798Y132D03*
X2098Y232D03*
X1798Y232D03*
X2098Y332D03*
X1798Y332D03*
X2098Y432D03*
X1798Y432D03*
X2098Y532D03*
X1798Y532D03*
X2098Y632D03*
X1798Y632D03*
X2098Y732D03*
X1798Y732D03*
X2098Y832D03*
X1798Y832D03*
G54D14*
X548Y607D03*
X548Y507D03*
X1648Y407D03*
X1648Y307D03*
G54D10*
X1223Y1482D03*
X1373Y1807D03*
X1373Y907D03*
X1323Y1682D03*
X1623Y1332D03*
X1673Y1032D03*
X1673Y1132D03*
G54D13*
X823Y1807D03*
X823Y1407D03*
X923Y1282D03*
X923Y1682D03*
X1023Y1132D03*
X1023Y1532D03*
G54D11*
X573Y1307D03*
X473Y1307D03*
X573Y1207D03*
X473Y1207D03*
G54D21*
X98Y707D03*
X398Y707D03*
X98Y607D03*
X398Y607D03*
X98Y507D03*
X398Y507D03*
X98Y407D03*
X398Y407D03*
X98Y307D03*
X398Y307D03*
X98Y207D03*
X398Y207D03*
X98Y107D03*
X398Y107D03*
G54D11*
X223Y1182D03*
X223Y1082D03*
X223Y982D03*
X223Y882D03*
X123Y1182D03*
X123Y1082D03*
X123Y982D03*
X123Y882D03*
X323Y1182D03*
X323Y1082D03*
X323Y982D03*
X323Y882D03*
G54D22*
X1673Y82D03*
X573Y82D03*
X2523Y2207D03*
X98Y2207D03*
G54D14*
X1548Y2207D03*
X1648Y2207D03*
G54D10*
X698Y607D03*
G54D23*
X2192Y1507D03*
X2192Y1457D03*
X2192Y1407D03*
X2192Y1357D03*
X2398Y1357D03*
X2398Y1407D03*
X2398Y1457D03*
X2398Y1507D03*
G54D24*
X523Y907D03*
G54D25*
X1673Y2007D03*
X2098Y132D03*
G54D26*
X98Y707D03*
G54D27*
X1424Y957D02*
X1248Y957D01*
D02*
X1424Y758D02*
X1248Y757D01*
D02*
X1479Y720D02*
X1424Y758D01*
D02*
X1479Y994D02*
X1424Y957D01*
D02*
X474Y2107D02*
X473Y2183D01*
D02*
X338Y2087D02*
X373Y2107D01*
D02*
X373Y2107D02*
X474Y2107D01*
D02*
X524Y2282D02*
X487Y2228D01*
D02*
X699Y2282D02*
X524Y2282D01*
D02*
X756Y2225D02*
X699Y2282D01*
G54D28*
D02*
X204Y853D02*
X174Y807D01*
D02*
X174Y807D02*
X174Y732D01*
G54D27*
D02*
X1943Y1072D02*
X2023Y1133D01*
D02*
X2023Y1133D02*
X2023Y1233D01*
D02*
X2199Y1006D02*
X2199Y1037D01*
D02*
X1322Y1607D02*
X1475Y1607D01*
D02*
X1281Y1544D02*
X1322Y1607D01*
D02*
X1996Y957D02*
X2147Y957D01*
D02*
X2147Y957D02*
X2199Y1006D01*
D02*
X1624Y1257D02*
X1549Y1356D01*
D02*
X1148Y1058D02*
X1111Y1002D01*
D02*
X1148Y1307D02*
X1148Y1058D01*
D02*
X1199Y1356D02*
X1148Y1307D01*
D02*
X1549Y1356D02*
X1199Y1356D01*
D02*
X1698Y1331D02*
X1624Y1257D01*
D02*
X2122Y1282D02*
X2073Y1331D01*
D02*
X2122Y1183D02*
X2122Y1282D01*
D02*
X2085Y1164D02*
X2122Y1183D01*
D02*
X2073Y1331D02*
X1698Y1331D01*
D02*
X999Y2008D02*
X998Y1632D01*
D02*
X748Y2007D02*
X697Y2058D01*
D02*
X697Y2058D02*
X561Y2058D01*
D02*
X719Y1718D02*
X748Y1733D01*
D02*
X748Y1733D02*
X748Y2007D01*
D02*
X899Y2108D02*
X999Y2008D01*
D02*
X374Y2108D02*
X899Y2108D01*
D02*
X998Y1632D02*
X923Y1582D01*
D02*
X923Y1582D02*
X923Y1305D01*
D02*
X338Y2087D02*
X374Y2108D01*
D02*
X823Y1508D02*
X823Y1784D01*
D02*
X748Y1458D02*
X823Y1508D01*
D02*
X286Y1411D02*
X348Y1432D01*
D02*
X598Y1432D02*
X623Y1457D01*
D02*
X348Y1432D02*
X598Y1432D01*
D02*
X623Y1457D02*
X748Y1458D01*
G54D29*
D02*
X1748Y1957D02*
X1973Y2132D01*
D02*
X1748Y1907D02*
X1748Y1957D01*
D02*
X2248Y2132D02*
X2273Y2157D01*
D02*
X1973Y2132D02*
X2248Y2132D01*
D02*
X1724Y1907D02*
X1748Y1907D01*
G54D27*
D02*
X1148Y1657D02*
X1189Y1617D01*
D02*
X1148Y1607D02*
X1148Y1546D01*
D02*
X1099Y1657D02*
X1148Y1607D01*
D02*
X1148Y1858D02*
X1148Y1657D01*
D02*
X1173Y1883D02*
X1148Y1858D01*
D02*
X1323Y1883D02*
X1173Y1883D01*
D02*
X1448Y2008D02*
X1323Y1883D01*
D02*
X1449Y2257D02*
X1448Y2008D01*
D02*
X1498Y2283D02*
X1449Y2257D01*
D02*
X2060Y2228D02*
X2023Y2283D01*
D02*
X2023Y2283D02*
X1498Y2283D01*
D02*
X1323Y1933D02*
X1148Y1933D01*
D02*
X1148Y1933D02*
X1099Y1883D01*
D02*
X1099Y1883D02*
X1099Y1657D01*
D02*
X1398Y2244D02*
X1398Y2008D01*
D02*
X1398Y2008D02*
X1323Y1933D01*
G54D29*
D02*
X2273Y2157D02*
X2273Y2177D01*
D02*
X1702Y1907D02*
X1724Y1907D01*
D02*
X2082Y2073D02*
X1998Y2022D01*
G54D27*
D02*
X1798Y2057D02*
X1955Y2191D01*
D02*
X1273Y1607D02*
X1273Y1632D01*
D02*
X1273Y1632D02*
X1198Y1707D01*
D02*
X1198Y1707D02*
X1198Y1807D01*
D02*
X1198Y1807D02*
X1223Y1832D01*
D02*
X1223Y1832D02*
X1323Y1832D01*
D02*
X1323Y1832D02*
X1498Y2008D01*
D02*
X1498Y2008D02*
X1498Y2057D01*
D02*
X1498Y2057D02*
X1514Y2073D01*
D02*
X1157Y1468D02*
X1273Y1607D01*
D02*
X1787Y2057D02*
X1798Y2057D01*
G54D30*
D02*
X2398Y1532D02*
X2398Y1514D01*
D02*
X2349Y1608D02*
X2398Y1532D01*
D02*
X1998Y1408D02*
X2198Y1608D01*
D02*
X1996Y1408D02*
X1998Y1408D01*
D02*
X2198Y1608D02*
X2349Y1608D01*
G54D28*
D02*
X1648Y2082D02*
X1648Y2176D01*
D02*
X1923Y2008D02*
X1939Y2007D01*
D02*
X1840Y1925D02*
X1923Y2008D01*
D02*
X1662Y2040D02*
X1648Y2082D01*
D02*
X1924Y1908D02*
X1939Y1908D01*
D02*
X1767Y1773D02*
X1924Y1908D01*
G54D27*
D02*
X800Y1407D02*
X721Y1407D01*
G54D28*
D02*
X1123Y2171D02*
X1123Y2132D01*
D02*
X2438Y1807D02*
X2382Y1807D01*
D02*
X2438Y2007D02*
X2382Y2007D01*
G54D27*
D02*
X2548Y1307D02*
X2548Y1359D01*
D02*
X2523Y1283D02*
X2548Y1307D01*
G54D30*
D02*
X2230Y1507D02*
X2260Y1507D01*
G54D27*
D02*
X2387Y1282D02*
X2523Y1283D01*
G54D30*
D02*
X2198Y1332D02*
X2198Y1178D01*
D02*
X2194Y1351D02*
X2198Y1332D01*
G54D29*
D02*
X2372Y1157D02*
X2224Y1157D01*
D02*
X2474Y907D02*
X2448Y883D01*
D02*
X2448Y883D02*
X2448Y862D01*
D02*
X2420Y1143D02*
X2474Y1107D01*
D02*
X2474Y1107D02*
X2474Y907D01*
G54D30*
D02*
X2323Y1246D02*
X2323Y1433D01*
D02*
X2323Y1433D02*
X2348Y1458D01*
D02*
X2348Y1458D02*
X2360Y1458D01*
D02*
X2323Y1483D02*
X2323Y1544D01*
D02*
X2230Y1457D02*
X2298Y1458D01*
D02*
X2298Y1458D02*
X2323Y1483D01*
D02*
X2473Y1407D02*
X2573Y1483D01*
D02*
X2523Y1807D02*
X2498Y1807D01*
D02*
X2573Y1758D02*
X2523Y1807D01*
D02*
X2436Y1407D02*
X2473Y1407D01*
D02*
X2573Y1483D02*
X2573Y1758D01*
D02*
X2149Y1407D02*
X2110Y1426D01*
D02*
X2154Y1407D02*
X2149Y1407D01*
G54D27*
D02*
X2161Y1788D02*
X2198Y1732D01*
D02*
X2198Y1732D02*
X2310Y1732D01*
G54D30*
D02*
X2448Y1358D02*
X2464Y1342D01*
D02*
X2436Y1358D02*
X2448Y1358D01*
G54D27*
D02*
X1573Y1758D02*
X1422Y1758D01*
D02*
X1423Y1657D02*
X1336Y1679D01*
D02*
X1573Y1658D02*
X1423Y1657D01*
D02*
X1422Y1758D02*
X1383Y1798D01*
D02*
X1653Y1718D02*
X1573Y1758D01*
D02*
X1623Y1507D02*
X1650Y1507D01*
D02*
X1574Y1458D02*
X1623Y1507D01*
D02*
X1653Y1618D02*
X1573Y1658D01*
D02*
X1298Y1458D02*
X1574Y1458D01*
D02*
X1236Y1478D02*
X1298Y1458D01*
G54D28*
D02*
X473Y557D02*
X522Y525D01*
D02*
X473Y658D02*
X473Y557D01*
D02*
X423Y690D02*
X473Y658D01*
G54D27*
D02*
X899Y957D02*
X549Y957D01*
D02*
X928Y943D02*
X899Y957D01*
D02*
X549Y957D02*
X533Y926D01*
D02*
X597Y532D02*
X567Y516D01*
D02*
X925Y532D02*
X597Y532D01*
D02*
X99Y1357D02*
X49Y1307D01*
G54D29*
D02*
X543Y1207D02*
X503Y1207D01*
G54D27*
D02*
X74Y608D02*
X79Y608D01*
D02*
X23Y658D02*
X74Y608D01*
D02*
X453Y1321D02*
X398Y1357D01*
D02*
X398Y1357D02*
X99Y1357D01*
D02*
X23Y831D02*
X23Y658D01*
D02*
X48Y882D02*
X23Y831D01*
D02*
X49Y1307D02*
X48Y882D01*
G54D29*
D02*
X123Y1052D02*
X123Y1012D01*
D02*
X123Y1112D02*
X123Y1152D01*
D02*
X223Y1152D02*
X223Y1112D01*
D02*
X223Y1052D02*
X223Y1012D01*
D02*
X223Y952D02*
X223Y912D01*
D02*
X123Y952D02*
X123Y912D01*
G54D27*
D02*
X1272Y1257D02*
X1233Y1298D01*
D02*
X1410Y1257D02*
X1272Y1257D01*
G54D28*
D02*
X1522Y32D02*
X899Y31D01*
D02*
X899Y31D02*
X847Y83D01*
D02*
X1574Y257D02*
X1572Y83D01*
D02*
X1572Y83D02*
X1522Y32D01*
D02*
X1598Y306D02*
X1574Y257D01*
D02*
X847Y83D02*
X847Y282D01*
D02*
X847Y282D02*
X799Y333D01*
D02*
X799Y333D02*
X647Y332D01*
D02*
X647Y332D02*
X597Y382D01*
D02*
X1617Y307D02*
X1598Y306D01*
D02*
X1467Y623D02*
X1399Y656D01*
D02*
X598Y458D02*
X571Y485D01*
D02*
X597Y382D02*
X598Y458D01*
D02*
X948Y732D02*
X1023Y807D01*
D02*
X748Y732D02*
X948Y732D01*
D02*
X1098Y2058D02*
X1112Y2086D01*
D02*
X1099Y1582D02*
X1049Y1632D01*
D02*
X1049Y1632D02*
X1049Y1908D01*
D02*
X1099Y1958D02*
X1098Y2058D01*
D02*
X1049Y1908D02*
X1099Y1958D01*
D02*
X1023Y1032D02*
X1098Y1082D01*
D02*
X1098Y1082D02*
X1099Y1582D01*
D02*
X1023Y807D02*
X1023Y1032D01*
G54D27*
D02*
X499Y233D02*
X499Y358D01*
D02*
X499Y358D02*
X514Y373D01*
D02*
X474Y208D02*
X499Y233D01*
G54D28*
D02*
X729Y722D02*
X748Y732D01*
G54D27*
D02*
X382Y418D02*
X322Y458D01*
D02*
X322Y458D02*
X322Y707D01*
D02*
X398Y858D02*
X398Y932D01*
D02*
X398Y932D02*
X344Y969D01*
D02*
X322Y707D02*
X398Y858D01*
D02*
X348Y832D02*
X334Y860D01*
D02*
X322Y108D02*
X274Y158D01*
D02*
X379Y107D02*
X322Y108D01*
D02*
X274Y707D02*
X348Y832D01*
D02*
X274Y158D02*
X274Y707D01*
D02*
X418Y208D02*
X474Y208D01*
G54D28*
D02*
X99Y808D02*
X98Y738D01*
D02*
X112Y848D02*
X99Y808D01*
G54D27*
D02*
X199Y206D02*
X118Y207D01*
D02*
X224Y732D02*
X224Y232D01*
D02*
X266Y796D02*
X224Y732D01*
D02*
X224Y232D02*
X199Y206D01*
D02*
X1573Y1808D02*
X1521Y1808D01*
D02*
X1650Y1808D02*
X1573Y1808D01*
G54D28*
D02*
X1747Y907D02*
X1779Y861D01*
D02*
X1624Y907D02*
X1747Y907D01*
D02*
X1723Y932D02*
X1778Y860D01*
D02*
X1723Y1083D02*
X1723Y932D01*
D02*
X1822Y1183D02*
X1723Y1083D01*
D02*
X1823Y1222D02*
X1822Y1183D01*
D02*
X1574Y858D02*
X1624Y907D01*
D02*
X1533Y608D02*
X1574Y608D01*
D02*
X1574Y608D02*
X1574Y858D01*
D02*
X1848Y232D02*
X1832Y232D01*
D02*
X1898Y282D02*
X1848Y232D01*
D02*
X1899Y758D02*
X1898Y282D01*
D02*
X1979Y818D02*
X1899Y758D01*
G54D29*
D02*
X1798Y204D02*
X1798Y161D01*
D02*
X1747Y232D02*
X1669Y292D01*
D02*
X1770Y232D02*
X1747Y232D01*
D02*
X1747Y333D02*
X1669Y392D01*
D02*
X1770Y333D02*
X1747Y333D01*
G54D28*
D02*
X1648Y507D02*
X1574Y608D01*
D02*
X1648Y439D02*
X1648Y507D01*
D02*
X1574Y608D02*
X1533Y608D01*
G54D27*
D02*
X2149Y582D02*
X2115Y616D01*
D02*
X2273Y582D02*
X2149Y582D01*
D02*
X2328Y619D02*
X2273Y582D01*
D02*
X2324Y532D02*
X2121Y532D01*
D02*
X2324Y432D02*
X2121Y432D01*
D02*
X2324Y232D02*
X2121Y232D01*
D02*
X2324Y132D02*
X2121Y132D01*
D02*
X2149Y907D02*
X2273Y907D01*
D02*
X2273Y907D02*
X2331Y850D01*
D02*
X2111Y851D02*
X2149Y907D01*
D02*
X2324Y332D02*
X2121Y332D01*
D02*
X2174Y658D02*
X2115Y716D01*
D02*
X2248Y658D02*
X2174Y658D01*
D02*
X2328Y718D02*
X2248Y658D01*
G54D29*
D02*
X2548Y562D02*
X2548Y602D01*
D02*
X2548Y662D02*
X2548Y702D01*
D02*
X2548Y762D02*
X2548Y802D01*
D02*
X2448Y802D02*
X2448Y762D01*
D02*
X2448Y702D02*
X2448Y662D01*
D02*
X2448Y602D02*
X2448Y562D01*
D02*
X2448Y502D02*
X2448Y462D01*
D02*
X2448Y402D02*
X2448Y362D01*
D02*
X2448Y302D02*
X2448Y262D01*
D02*
X2448Y202D02*
X2448Y162D01*
D02*
X2548Y162D02*
X2548Y202D01*
D02*
X2548Y362D02*
X2548Y402D01*
D02*
X2548Y462D02*
X2548Y502D01*
G54D28*
D02*
X2548Y83D02*
X2474Y33D01*
D02*
X2474Y33D02*
X1898Y33D01*
D02*
X1898Y33D02*
X1822Y108D01*
D02*
X2548Y97D02*
X2548Y83D01*
G54D29*
D02*
X2548Y262D02*
X2548Y302D01*
G54D28*
D02*
X2373Y1657D02*
X2174Y1657D01*
D02*
X2174Y1657D02*
X2024Y1508D01*
D02*
X2398Y1707D02*
X2373Y1657D01*
D02*
X2024Y1508D02*
X2007Y1508D01*
D02*
X2073Y1832D02*
X2073Y1732D01*
D02*
X2124Y1906D02*
X2073Y1832D01*
D02*
X2323Y1907D02*
X2124Y1906D01*
D02*
X2048Y1707D02*
X2007Y1707D01*
D02*
X2073Y1732D02*
X2048Y1707D01*
D02*
X2438Y1907D02*
X2323Y1907D01*
D02*
X2438Y1707D02*
X2398Y1707D01*
G54D27*
D02*
X1384Y899D02*
X1480Y822D01*
D02*
X1614Y1342D02*
X1549Y1407D01*
D02*
X1549Y1407D02*
X1521Y1407D01*
D02*
X1664Y1043D02*
X1524Y1207D01*
D02*
X1524Y1207D02*
X1521Y1207D01*
D02*
X1523Y1307D02*
X1664Y1143D01*
D02*
X1521Y1307D02*
X1523Y1307D01*
D02*
X973Y1132D02*
X930Y1260D01*
D02*
X1000Y1132D02*
X973Y1132D01*
D02*
X773Y1657D02*
X717Y1694D01*
D02*
X773Y1546D02*
X773Y1657D01*
G54D28*
D02*
X1098Y657D02*
X998Y656D01*
D02*
X1098Y617D02*
X1098Y657D01*
D02*
X1248Y657D02*
X1098Y657D01*
D02*
X1399Y656D02*
X1248Y657D01*
D02*
X998Y656D02*
X897Y606D01*
D02*
X897Y606D02*
X723Y607D01*
G54D31*
X924Y190D02*
X989Y190D01*
X989Y125D01*
X924Y125D01*
X924Y190D01*
D02*
X1207Y190D02*
X1273Y190D01*
X1273Y125D01*
X1207Y125D01*
X1207Y190D01*
D02*
G54D32*
X1542Y2242D02*
X1553Y2242D01*
X1642Y2242D02*
X1653Y2242D01*
X1538Y2241D02*
X1557Y2241D01*
X1638Y2241D02*
X1657Y2241D01*
X1535Y2240D02*
X1560Y2240D01*
X1635Y2240D02*
X1660Y2240D01*
X1533Y2239D02*
X1562Y2239D01*
X1633Y2239D02*
X1662Y2239D01*
X1531Y2238D02*
X1564Y2238D01*
X1631Y2238D02*
X1664Y2238D01*
X1529Y2237D02*
X1566Y2237D01*
X1629Y2237D02*
X1666Y2237D01*
X1528Y2236D02*
X1567Y2236D01*
X1628Y2236D02*
X1667Y2236D01*
X1526Y2235D02*
X1569Y2235D01*
X1626Y2235D02*
X1669Y2235D01*
X1525Y2234D02*
X1570Y2234D01*
X1625Y2234D02*
X1670Y2234D01*
X1524Y2233D02*
X1571Y2233D01*
X1624Y2233D02*
X1671Y2233D01*
X1523Y2232D02*
X1572Y2232D01*
X1623Y2232D02*
X1672Y2232D01*
X1522Y2231D02*
X1573Y2231D01*
X1622Y2231D02*
X1673Y2231D01*
X1521Y2230D02*
X1574Y2230D01*
X1621Y2230D02*
X1674Y2230D01*
X1520Y2229D02*
X1575Y2229D01*
X1620Y2229D02*
X1675Y2229D01*
X1520Y2228D02*
X1575Y2228D01*
X1620Y2228D02*
X1675Y2228D01*
X1519Y2227D02*
X1576Y2227D01*
X1619Y2227D02*
X1676Y2227D01*
X1518Y2226D02*
X1577Y2226D01*
X1618Y2226D02*
X1677Y2226D01*
X1518Y2225D02*
X1577Y2225D01*
X1618Y2225D02*
X1677Y2225D01*
X1517Y2224D02*
X1578Y2224D01*
X1617Y2224D02*
X1678Y2224D01*
X1517Y2223D02*
X1578Y2223D01*
X1617Y2223D02*
X1678Y2223D01*
X1516Y2222D02*
X1542Y2222D01*
X1553Y2222D02*
X1579Y2222D01*
X1616Y2222D02*
X1642Y2222D01*
X1653Y2222D02*
X1679Y2222D01*
X1516Y2221D02*
X1540Y2221D01*
X1555Y2221D02*
X1579Y2221D01*
X1616Y2221D02*
X1640Y2221D01*
X1655Y2221D02*
X1679Y2221D01*
X1515Y2220D02*
X1538Y2220D01*
X1557Y2220D02*
X1580Y2220D01*
X1615Y2220D02*
X1638Y2220D01*
X1657Y2220D02*
X1680Y2220D01*
X1515Y2219D02*
X1537Y2219D01*
X1558Y2219D02*
X1580Y2219D01*
X1615Y2219D02*
X1637Y2219D01*
X1658Y2219D02*
X1680Y2219D01*
X1515Y2218D02*
X1536Y2218D01*
X1559Y2218D02*
X1580Y2218D01*
X1615Y2218D02*
X1636Y2218D01*
X1659Y2218D02*
X1680Y2218D01*
X1514Y2217D02*
X1535Y2217D01*
X1560Y2217D02*
X1581Y2217D01*
X1614Y2217D02*
X1635Y2217D01*
X1660Y2217D02*
X1681Y2217D01*
X1514Y2216D02*
X1534Y2216D01*
X1561Y2216D02*
X1581Y2216D01*
X1614Y2216D02*
X1634Y2216D01*
X1661Y2216D02*
X1681Y2216D01*
X1514Y2215D02*
X1534Y2215D01*
X1561Y2215D02*
X1581Y2215D01*
X1614Y2215D02*
X1634Y2215D01*
X1661Y2215D02*
X1681Y2215D01*
X1514Y2214D02*
X1533Y2214D01*
X1562Y2214D02*
X1581Y2214D01*
X1614Y2214D02*
X1633Y2214D01*
X1662Y2214D02*
X1681Y2214D01*
X1514Y2213D02*
X1533Y2213D01*
X1562Y2213D02*
X1581Y2213D01*
X1614Y2213D02*
X1633Y2213D01*
X1662Y2213D02*
X1681Y2213D01*
X1513Y2212D02*
X1533Y2212D01*
X1562Y2212D02*
X1582Y2212D01*
X1613Y2212D02*
X1633Y2212D01*
X1662Y2212D02*
X1682Y2212D01*
X1513Y2211D02*
X1532Y2211D01*
X1563Y2211D02*
X1582Y2211D01*
X1613Y2211D02*
X1632Y2211D01*
X1663Y2211D02*
X1682Y2211D01*
X1513Y2210D02*
X1532Y2210D01*
X1563Y2210D02*
X1582Y2210D01*
X1613Y2210D02*
X1632Y2210D01*
X1663Y2210D02*
X1682Y2210D01*
X1513Y2209D02*
X1532Y2209D01*
X1563Y2209D02*
X1582Y2209D01*
X1613Y2209D02*
X1632Y2209D01*
X1663Y2209D02*
X1682Y2209D01*
X1513Y2208D02*
X1532Y2208D01*
X1563Y2208D02*
X1582Y2208D01*
X1613Y2208D02*
X1632Y2208D01*
X1663Y2208D02*
X1682Y2208D01*
X1513Y2207D02*
X1532Y2207D01*
X1563Y2207D02*
X1582Y2207D01*
X1613Y2207D02*
X1632Y2207D01*
X1663Y2207D02*
X1682Y2207D01*
X1513Y2206D02*
X1532Y2206D01*
X1563Y2206D02*
X1582Y2206D01*
X1613Y2206D02*
X1632Y2206D01*
X1663Y2206D02*
X1682Y2206D01*
X1513Y2205D02*
X1532Y2205D01*
X1563Y2205D02*
X1582Y2205D01*
X1613Y2205D02*
X1632Y2205D01*
X1663Y2205D02*
X1682Y2205D01*
X1513Y2204D02*
X1532Y2204D01*
X1563Y2204D02*
X1582Y2204D01*
X1613Y2204D02*
X1632Y2204D01*
X1663Y2204D02*
X1682Y2204D01*
X1513Y2203D02*
X1533Y2203D01*
X1562Y2203D02*
X1582Y2203D01*
X1613Y2203D02*
X1633Y2203D01*
X1662Y2203D02*
X1682Y2203D01*
X1514Y2202D02*
X1533Y2202D01*
X1562Y2202D02*
X1581Y2202D01*
X1614Y2202D02*
X1633Y2202D01*
X1662Y2202D02*
X1681Y2202D01*
X1514Y2201D02*
X1533Y2201D01*
X1562Y2201D02*
X1581Y2201D01*
X1614Y2201D02*
X1633Y2201D01*
X1662Y2201D02*
X1681Y2201D01*
X1514Y2200D02*
X1534Y2200D01*
X1561Y2200D02*
X1581Y2200D01*
X1614Y2200D02*
X1634Y2200D01*
X1661Y2200D02*
X1681Y2200D01*
X1514Y2199D02*
X1535Y2199D01*
X1560Y2199D02*
X1581Y2199D01*
X1614Y2199D02*
X1635Y2199D01*
X1660Y2199D02*
X1681Y2199D01*
X1515Y2198D02*
X1536Y2198D01*
X1559Y2198D02*
X1580Y2198D01*
X1615Y2198D02*
X1636Y2198D01*
X1659Y2198D02*
X1680Y2198D01*
X1515Y2197D02*
X1537Y2197D01*
X1558Y2197D02*
X1580Y2197D01*
X1615Y2197D02*
X1637Y2197D01*
X1658Y2197D02*
X1680Y2197D01*
X1515Y2196D02*
X1538Y2196D01*
X1557Y2196D02*
X1580Y2196D01*
X1615Y2196D02*
X1638Y2196D01*
X1657Y2196D02*
X1680Y2196D01*
X1516Y2195D02*
X1539Y2195D01*
X1556Y2195D02*
X1579Y2195D01*
X1616Y2195D02*
X1639Y2195D01*
X1656Y2195D02*
X1679Y2195D01*
X1516Y2194D02*
X1541Y2194D01*
X1554Y2194D02*
X1579Y2194D01*
X1616Y2194D02*
X1641Y2194D01*
X1654Y2194D02*
X1679Y2194D01*
X1516Y2193D02*
X1544Y2193D01*
X1551Y2193D02*
X1579Y2193D01*
X1616Y2193D02*
X1644Y2193D01*
X1651Y2193D02*
X1679Y2193D01*
X1517Y2192D02*
X1578Y2192D01*
X1617Y2192D02*
X1678Y2192D01*
X1517Y2191D02*
X1578Y2191D01*
X1617Y2191D02*
X1678Y2191D01*
X1518Y2190D02*
X1577Y2190D01*
X1618Y2190D02*
X1677Y2190D01*
X1519Y2189D02*
X1576Y2189D01*
X1619Y2189D02*
X1676Y2189D01*
X1519Y2188D02*
X1576Y2188D01*
X1619Y2188D02*
X1676Y2188D01*
X1520Y2187D02*
X1575Y2187D01*
X1620Y2187D02*
X1675Y2187D01*
X1521Y2186D02*
X1574Y2186D01*
X1621Y2186D02*
X1674Y2186D01*
X1521Y2185D02*
X1574Y2185D01*
X1621Y2185D02*
X1674Y2185D01*
X1522Y2184D02*
X1573Y2184D01*
X1622Y2184D02*
X1673Y2184D01*
X1523Y2183D02*
X1572Y2183D01*
X1623Y2183D02*
X1672Y2183D01*
X1524Y2182D02*
X1571Y2182D01*
X1624Y2182D02*
X1671Y2182D01*
X1525Y2181D02*
X1570Y2181D01*
X1625Y2181D02*
X1670Y2181D01*
X1527Y2180D02*
X1568Y2180D01*
X1627Y2180D02*
X1668Y2180D01*
X1528Y2179D02*
X1567Y2179D01*
X1628Y2179D02*
X1667Y2179D01*
X1530Y2178D02*
X1565Y2178D01*
X1630Y2178D02*
X1665Y2178D01*
X1532Y2177D02*
X1563Y2177D01*
X1632Y2177D02*
X1663Y2177D01*
X1534Y2176D02*
X1561Y2176D01*
X1634Y2176D02*
X1661Y2176D01*
X1536Y2175D02*
X1559Y2175D01*
X1636Y2175D02*
X1659Y2175D01*
X1539Y2174D02*
X1556Y2174D01*
X1639Y2174D02*
X1656Y2174D01*
X1544Y2173D02*
X1551Y2173D01*
X1644Y2173D02*
X1651Y2173D01*
X927Y288D02*
X961Y288D01*
X974Y288D02*
X988Y288D01*
X1207Y288D02*
X1221Y288D01*
X1234Y288D02*
X1268Y288D01*
X927Y287D02*
X958Y287D01*
X977Y287D02*
X988Y287D01*
X1207Y287D02*
X1218Y287D01*
X1237Y287D02*
X1268Y287D01*
X927Y286D02*
X957Y286D01*
X979Y286D02*
X988Y286D01*
X1207Y286D02*
X1216Y286D01*
X1239Y286D02*
X1268Y286D01*
X927Y285D02*
X955Y285D01*
X980Y285D02*
X988Y285D01*
X1207Y285D02*
X1215Y285D01*
X1240Y285D02*
X1268Y285D01*
X927Y284D02*
X954Y284D01*
X981Y284D02*
X988Y284D01*
X1207Y284D02*
X1214Y284D01*
X1241Y284D02*
X1268Y284D01*
X927Y283D02*
X953Y283D01*
X983Y283D02*
X988Y283D01*
X1207Y283D02*
X1212Y283D01*
X1242Y283D02*
X1268Y283D01*
X927Y282D02*
X952Y282D01*
X984Y282D02*
X988Y282D01*
X1207Y282D02*
X1212Y282D01*
X1243Y282D02*
X1268Y282D01*
X927Y281D02*
X951Y281D01*
X984Y281D02*
X988Y281D01*
X1207Y281D02*
X1211Y281D01*
X1244Y281D02*
X1268Y281D01*
X927Y280D02*
X950Y280D01*
X985Y280D02*
X988Y280D01*
X1207Y280D02*
X1210Y280D01*
X1245Y280D02*
X1268Y280D01*
X927Y279D02*
X949Y279D01*
X986Y279D02*
X988Y279D01*
X1207Y279D02*
X1209Y279D01*
X1246Y279D02*
X1268Y279D01*
X927Y278D02*
X949Y278D01*
X986Y278D02*
X988Y278D01*
X1207Y278D02*
X1209Y278D01*
X1246Y278D02*
X1268Y278D01*
X927Y277D02*
X948Y277D01*
X987Y277D02*
X988Y277D01*
X1207Y277D02*
X1208Y277D01*
X1247Y277D02*
X1268Y277D01*
X927Y276D02*
X948Y276D01*
X987Y276D02*
X988Y276D01*
X1207Y276D02*
X1208Y276D01*
X1247Y276D02*
X1268Y276D01*
X927Y275D02*
X948Y275D01*
X988Y275D02*
X988Y275D01*
X1207Y275D02*
X1207Y275D01*
X1247Y275D02*
X1268Y275D01*
X927Y274D02*
X947Y274D01*
X988Y274D02*
X988Y274D01*
X1207Y274D02*
X1207Y274D01*
X1248Y274D02*
X1268Y274D01*
X927Y273D02*
X947Y273D01*
X988Y273D02*
X988Y273D01*
X1207Y273D02*
X1207Y273D01*
X1248Y273D02*
X1268Y273D01*
X927Y272D02*
X947Y272D01*
X1248Y272D02*
X1268Y272D01*
X927Y271D02*
X947Y271D01*
X1248Y271D02*
X1268Y271D01*
X927Y270D02*
X946Y270D01*
X1249Y270D02*
X1268Y270D01*
X927Y269D02*
X946Y269D01*
X1249Y269D02*
X1268Y269D01*
X927Y268D02*
X946Y268D01*
X1249Y268D02*
X1268Y268D01*
X927Y267D02*
X946Y267D01*
X1249Y267D02*
X1268Y267D01*
X927Y266D02*
X947Y266D01*
X1249Y266D02*
X1268Y266D01*
X927Y265D02*
X947Y265D01*
X1248Y265D02*
X1268Y265D01*
X927Y264D02*
X947Y264D01*
X1248Y264D02*
X1268Y264D01*
X927Y263D02*
X947Y263D01*
X988Y263D02*
X988Y263D01*
X1207Y263D02*
X1207Y263D01*
X1248Y263D02*
X1268Y263D01*
X927Y262D02*
X947Y262D01*
X988Y262D02*
X988Y262D01*
X1207Y262D02*
X1207Y262D01*
X1248Y262D02*
X1268Y262D01*
X927Y261D02*
X948Y261D01*
X988Y261D02*
X988Y261D01*
X1207Y261D02*
X1208Y261D01*
X1247Y261D02*
X1268Y261D01*
X927Y260D02*
X948Y260D01*
X987Y260D02*
X988Y260D01*
X1207Y260D02*
X1208Y260D01*
X1247Y260D02*
X1268Y260D01*
X927Y259D02*
X949Y259D01*
X987Y259D02*
X988Y259D01*
X1207Y259D02*
X1208Y259D01*
X1246Y259D02*
X1268Y259D01*
X927Y258D02*
X949Y258D01*
X986Y258D02*
X988Y258D01*
X1207Y258D02*
X1209Y258D01*
X1246Y258D02*
X1268Y258D01*
X927Y257D02*
X950Y257D01*
X986Y257D02*
X988Y257D01*
X1207Y257D02*
X1210Y257D01*
X1245Y257D02*
X1268Y257D01*
X927Y256D02*
X950Y256D01*
X985Y256D02*
X988Y256D01*
X1207Y256D02*
X1210Y256D01*
X1245Y256D02*
X1268Y256D01*
X927Y255D02*
X951Y255D01*
X984Y255D02*
X988Y255D01*
X1207Y255D02*
X1211Y255D01*
X1244Y255D02*
X1268Y255D01*
X927Y254D02*
X952Y254D01*
X983Y254D02*
X988Y254D01*
X1207Y254D02*
X1212Y254D01*
X1243Y254D02*
X1268Y254D01*
X927Y253D02*
X953Y253D01*
X982Y253D02*
X988Y253D01*
X1207Y253D02*
X1213Y253D01*
X1242Y253D02*
X1268Y253D01*
X927Y252D02*
X954Y252D01*
X981Y252D02*
X988Y252D01*
X1207Y252D02*
X1214Y252D01*
X1241Y252D02*
X1268Y252D01*
X927Y251D02*
X956Y251D01*
X980Y251D02*
X988Y251D01*
X1207Y251D02*
X1215Y251D01*
X1239Y251D02*
X1268Y251D01*
X927Y250D02*
X957Y250D01*
X978Y250D02*
X988Y250D01*
X1207Y250D02*
X1217Y250D01*
X1238Y250D02*
X1268Y250D01*
X927Y249D02*
X959Y249D01*
X976Y249D02*
X988Y249D01*
X1207Y249D02*
X1219Y249D01*
X1236Y249D02*
X1268Y249D01*
X927Y248D02*
X963Y248D01*
X973Y248D02*
X988Y248D01*
X1207Y248D02*
X1222Y248D01*
X1232Y248D02*
X1268Y248D01*
D02*
G04 End of Copper1*
M02*